<?xml version="1.0" encoding="utf-8"?>
<!-- Generator: Adobe Illustrator 16.0.0, SVG Export Plug-In . SVG Version: 6.00 Build 0)  -->
<!DOCTYPE svg PUBLIC "-//W3C//DTD SVG 1.1//EN" "http://www.w3.org/Graphics/SVG/1.1/DTD/svg11.dtd">
<svg version="1.1" id="Capa_1" xmlns="http://www.w3.org/2000/svg" xmlns:xlink="http://www.w3.org/1999/xlink" x="0px" y="0px"
	 width="523.496px" height="210.747px" viewBox="0 0 523.496 210.747" enable-background="new 0 0 523.496 210.747"
	 xml:space="preserve">
<g>
	<path fill="#32123C" d="M156.779,171.842c-2.501,0-5.673-0.281-8.716-0.281c-26.683-1.105-36.915-7.872-47.556-24.611
		c-7.747-11.328-15.895-26.813-23.23-39.945c-4.278-7.326-8.563-10.358-18.664-10.358h-7.179v38.412
		c0,21.567,2.349,23.223,22.115,24.886v9.685H0v-9.685c20.052-1.663,22.955-3.318,22.955-24.886V34
		c0-21.287-2.634-22.936-21.849-24.323V0h69.401c20.606,0,33.321,2.349,43.548,9.119c10.5,6.775,17.834,18.398,17.834,34.564
		c0,22.949-14.1,35.938-32.632,43.816c4.292,7.607,14.239,25.179,22.123,37.061c9.128,14.242,13.965,21.293,19.632,26.953
		c6.225,6.767,11.615,9.686,17.139,11.615L156.779,171.842z"/>
	<path fill="#32123C" d="M333.59,9.677c-14.656,0.837-20.597,4.555-21.995,14.374c-0.817,7.737-1.79,17.565-1.79,39.121v24.604
		c0,29.182-4.426,51.574-19.223,67.191c-11.592,12.448-29.158,18.397-46.714,18.397c-16.181,0-31.653-3.465-43.548-13.131
		c-14.796-11.615-21.845-30.831-21.845-61.385V35.387c0-22.674-2.211-24.322-22.127-25.71V0h73.419v9.677
		c-19.498,1.388-21.85,3.036-21.85,25.71v58.63c0,40.776,15.07,62.045,43.693,62.045c31.652,0,44.925-25.005,44.925-68.562V63.172
		c0-21.281-1.106-31.384-2.22-39.393c-1.379-9.26-7.314-13-25.572-14.103V0h64.846V9.677z"/>
	<path fill="#32123C" d="M522.702,9.399c-14.102,0.825-19.767,4.562-21.156,14.926c-1.094,8.03-1.92,20.185-1.92,43.138v104.379
		h-12.309L382.934,40.783h-0.54v60.549c0,22.111,1.107,34.563,1.918,42.307c1.121,11.615,6.783,15.479,24.633,16.305v9.685h-63.745
		v-9.685c14.518-0.826,20.726-4.689,21.827-15.75c1.139-8.299,2.227-20.75,2.227-42.861V45.619c0-17.554-0.269-20.735-4.98-26.948
		c-4.841-6.231-11.051-8.157-22.111-9.271V0h44.093l99.128,120.685h0.84V67.463c0-22.953-1.111-35.107-1.943-42.853
		c-1.388-10.379-7.323-14.097-25.159-15.211V0h63.583V9.399z"/>
	<g>
		<path fill="#32123C" d="M21.14,210.572h-7.598l-4.745-7.951H6.57v7.951H0v-21.35h10.597c1.919,0,3.563,0.32,4.932,0.959
			c1.369,0.641,2.411,1.481,3.126,2.526c0.715,1.044,1.072,2.172,1.072,3.383c0,1.337-0.423,2.481-1.271,3.434
			c-0.848,0.952-1.875,1.666-3.083,2.146L21.14,210.572z M13.158,196.098c0-0.38-0.113-0.734-0.34-1.065
			c-0.228-0.33-0.559-0.597-0.994-0.796c-0.436-0.2-0.942-0.299-1.518-0.299H6.57v4.305h3.735c0.576,0,1.083-0.1,1.518-0.299
			c0.435-0.199,0.766-0.462,0.994-0.789C13.044,196.83,13.158,196.477,13.158,196.098z"/>
		<path fill="#32123C" d="M42.685,210.572H24.499v-21.35h18.187v4.672H31.068v3.571h9.928v4.673h-9.928v3.762h11.617V210.572z"/>
		<path fill="#32123C" d="M53.916,210.572h-6.569v-21.35h6.569V210.572z"/>
		<path fill="#32123C" d="M80.212,210.572h-5.744l-8.57-10.732v10.732h-6.569v-21.35h5.746l8.568,10.732v-10.732h6.569V210.572z"/>
		<path fill="#32123C" d="M105.408,201.245c0,1.757-0.199,3.177-0.596,4.261c-0.397,1.083-1.103,2.029-2.118,2.84
			c-0.721,0.587-1.494,1.06-2.319,1.421c-0.825,0.362-1.684,0.615-2.576,0.762c-0.892,0.146-1.852,0.219-2.878,0.219
			c-2.971,0-5.446-0.799-7.426-2.401c-1.174-0.936-1.919-2.001-2.237-3.191s-0.477-2.703-0.477-4.539v-0.718v-0.719
			c0-1.835,0.159-3.349,0.477-4.545c0.318-1.197,1.063-2.264,2.237-3.2c1.015-0.81,2.108-1.41,3.282-1.801
			c1.173-0.391,2.554-0.585,4.143-0.585c3.179,0,5.626,0.678,7.344,2.034c1.718,1.357,2.753,3.036,3.108,5.037h-6.625
			c-0.27-0.84-0.698-1.45-1.285-1.83c-0.587-0.381-1.438-0.571-2.551-0.571c-1.125,0-1.988,0.313-2.587,0.937
			c-0.22,0.226-0.401,0.502-0.542,0.828c-0.141,0.327-0.248,0.829-0.321,1.509c-0.074,0.678-0.11,1.647-0.11,2.906
			s0.037,2.231,0.11,2.914c0.073,0.684,0.18,1.191,0.321,1.522c0.141,0.333,0.321,0.61,0.542,0.835
			c0.587,0.604,1.45,0.907,2.587,0.907c1.285,0,2.263-0.282,2.937-0.85c0.673-0.537,1.009-1.293,1.009-2.269v-0.308h-3.945v-4.379
			h10.497V201.245z"/>
		<path fill="#32123C" d="M128.145,210.572h-18.186v-21.35h18.186v4.672h-11.616v3.571h9.927v4.673h-9.927v3.762h11.616V210.572z"/>
		<path fill="#32123C" d="M153.689,210.572h-5.744l-8.57-10.732v10.732h-6.57v-21.35h5.746l8.567,10.732v-10.732h6.57V210.572z"/>
		<path fill="#32123C" d="M165.691,210.572h-6.569v-21.35h6.569V210.572z"/>
		<path fill="#32123C" d="M189.291,210.572h-18.187v-21.35h18.187v4.672h-11.616v3.571h9.928v4.673h-9.928v3.762h11.616V210.572z"/>
		<path fill="#32123C" d="M215.092,210.572h-7.599l-4.746-7.951h-2.227v7.951h-6.569v-21.35h10.596c1.919,0,3.563,0.32,4.932,0.959
			c1.369,0.641,2.411,1.481,3.125,2.526c0.715,1.044,1.073,2.172,1.073,3.383c0,1.337-0.424,2.481-1.272,3.434
			c-0.848,0.952-1.875,1.666-3.083,2.146L215.092,210.572z M207.109,196.098c0-0.38-0.113-0.734-0.341-1.065
			c-0.227-0.33-0.558-0.597-0.993-0.796c-0.436-0.2-0.941-0.299-1.518-0.299h-3.735v4.305h3.735c0.577,0,1.083-0.1,1.518-0.299
			s0.766-0.462,0.993-0.789C206.996,196.83,207.109,196.477,207.109,196.098z"/>
		<path fill="#32123C" d="M225.02,210.572h-6.57v-21.35h6.57V210.572z M227.735,181.726l-4.43,5.403h-3.717l1.849-5.403H227.735z"/>
		<path fill="#32123C" d="M252.252,210.572h-6.863l-1.248-3.178h-8.24l-1.303,3.178h-6.881l9.726-21.35h5.083L252.252,210.572z
			 M242.417,203.016l-2.257-5.695l-2.404,5.695H242.417z"/>
		<path fill="#32123C" d="M253.906,202.686c0-1.079,0.939-1.89,2.255-1.89s2.18,0.78,2.217,1.89c0,1.079-0.902,1.89-2.255,1.89
			C254.808,204.575,253.868,203.765,253.906,202.686z"/>
		<path fill="#32123C" d="M282.126,203.646c0,1.366-0.388,2.591-1.165,3.675c-0.779,1.084-1.862,1.926-3.254,2.526
			c-1.389,0.6-2.971,0.899-4.748,0.899c-1.764,0-3.346-0.3-4.748-0.899c-1.402-0.601-2.492-1.442-3.27-2.526
			s-1.166-2.309-1.166-3.675v-14.424h2.037v14.218c0,1.173,0.295,2.2,0.889,3.082c0.592,0.885,1.434,1.57,2.52,2.058
			c1.087,0.488,2.334,0.732,3.738,0.732c1.381,0,2.619-0.244,3.712-0.732c1.094-0.487,1.937-1.173,2.53-2.058
			c0.592-0.882,0.889-1.909,0.889-3.082v-14.218h2.036V203.646z"/>
		<path fill="#32123C" d="M309.524,210.572h-2.036l-15.434-18.567v18.567h-2.037v-21.35h2.037l15.434,18.494v-18.494h2.036V210.572z
			"/>
		<path fill="#32123C" d="M319.819,210.572h-2.037v-21.35h2.037V210.572z"/>
		<path fill="#32123C" d="M343.639,189.223l-8.79,21.35h-1.726l-8.809-21.35h2.148l7.523,18.494l7.506-18.494H343.639z"/>
		<path fill="#32123C" d="M364.394,210.572h-16.241v-21.35h16.241v1.435H350.19v8.435h12.093v1.436H350.19v8.609h14.203V210.572z"/>
		<path fill="#32123C" d="M388.782,210.572h-2.367l-6.387-9.84h-7.358v9.84h-2.037v-21.35h10.185c1.48,0,2.799,0.222,3.955,0.666
			s2.064,1.099,2.726,1.962c0.659,0.865,0.991,1.897,0.991,3.097c0,1.563-0.549,2.847-1.643,3.852
			c-1.096,1.006-2.604,1.64-4.524,1.904L388.782,210.572z M386.452,194.977c0-1.414-0.536-2.488-1.606-3.221
			s-2.499-1.099-4.285-1.099h-7.891v8.639h7.891c0.868,0,1.664-0.089,2.386-0.271c0.721-0.181,1.34-0.446,1.854-0.798
			c0.514-0.351,0.918-0.8,1.211-1.348C386.305,196.334,386.452,195.7,386.452,194.977z"/>
		<path fill="#32123C" d="M411.042,204.848c0,0.877-0.205,1.685-0.615,2.422s-1.003,1.361-1.779,1.875
			c-0.777,0.513-1.731,0.908-2.863,1.186s-2.383,0.417-3.753,0.417c-1.272,0-2.435-0.097-3.487-0.292
			c-1.051-0.195-2.018-0.503-2.898-0.923s-1.725-0.952-2.532-1.597l1.431-1.143c0.807,0.645,1.582,1.15,2.328,1.517
			c0.745,0.366,1.546,0.625,2.4,0.775c0.855,0.152,1.809,0.228,2.859,0.228c1.405,0,2.621-0.174,3.646-0.52
			c1.027-0.348,1.821-0.855,2.383-1.523c0.563-0.668,0.844-1.457,0.844-2.364c0-1.309-0.488-2.31-1.466-3.003
			c-0.452-0.313-0.953-0.548-1.503-0.709c-0.551-0.161-1.338-0.305-2.363-0.433l-3.117-0.381c-2.027-0.243-3.617-0.767-4.766-1.566
			c-1.405-0.937-2.108-2.245-2.108-3.924c0-0.897,0.199-1.71,0.597-2.438c0.396-0.727,0.95-1.342,1.659-1.845
			c0.708-0.503,1.582-0.889,2.622-1.157c1.039-0.268,2.183-0.401,3.43-0.401c1.625,0,3.025,0.183,4.198,0.548
			c1.174,0.365,2.342,0.95,3.503,1.75l-1.327,1.055c-0.94-0.673-1.891-1.172-2.849-1.495c-0.96-0.321-2.172-0.481-3.639-0.481
			c-1.93,0-3.445,0.395-4.545,1.186s-1.648,1.865-1.648,3.221c0,1.24,0.457,2.168,1.374,2.783c0.501,0.322,1.114,0.603,1.841,0.842
			c0.728,0.24,1.445,0.397,2.154,0.476l2.877,0.365c1.237,0.147,2.205,0.323,2.904,0.528c0.698,0.205,1.323,0.498,1.875,0.879
			c0.76,0.498,1.338,1.1,1.736,1.809C410.843,203.219,411.042,203.996,411.042,204.848z"/>
		<path fill="#32123C" d="M419.429,210.572h-2.037v-21.35h2.037V210.572z"/>
		<path fill="#32123C" d="M442.679,190.657h-8.001v19.915h-2.037v-19.915h-7.964v-1.435h18.002V190.657z"/>
		<path fill="#32123C" d="M465.874,210.572h-2.184l-2.329-5.169h-12.48l-2.312,5.169h-2.184l9.836-21.35h1.816L465.874,210.572z
			 M460.736,203.938l-5.615-12.563l-5.598,12.563H460.736z"/>
		<path fill="#32123C" d="M488.722,210.572h-2.367l-6.387-9.84h-7.358v9.84h-2.037v-21.35h10.185c1.479,0,2.799,0.222,3.955,0.666
			s2.064,1.099,2.726,1.962c0.66,0.865,0.99,1.897,0.99,3.097c0,1.563-0.548,2.847-1.642,3.852c-1.096,1.006-2.604,1.64-4.524,1.904
			L488.722,210.572z M486.392,194.977c0-1.414-0.536-2.488-1.606-3.221c-1.071-0.732-2.498-1.099-4.285-1.099h-7.891v8.639h7.891
			c0.869,0,1.663-0.089,2.386-0.271c0.723-0.181,1.34-0.446,1.853-0.798c0.515-0.351,0.919-0.8,1.212-1.348
			C486.245,196.334,486.392,195.7,486.392,194.977z"/>
		<path fill="#32123C" d="M497.311,210.572h-2.038v-21.35h2.038V210.572z"/>
		<path fill="#32123C" d="M523.496,210.572h-2.183l-2.331-5.169h-12.479l-2.313,5.169h-2.183l9.837-21.35h1.816L523.496,210.572z
			 M518.358,203.938l-5.616-12.563l-5.597,12.563H518.358z"/>
	</g>
	<g>
		<path fill="#FFFFFF" d="M80.778,62.318h4.353l2.178-1.979h4.156l2.175-1.188l1.583-0.99h1.782h5.937c0,0,1.977,1.388,2.372,2.081
			c0,0-10.09,19.487-24.535,6.626V62.318z"/>
		<path fill="#FFFFFF" d="M96.21,56.581h4.551h1.583l1.322,1.581h1.055l1.188,0.596h1.057l0.919-1.089l0.794-1.088l0.924-1.254
			c0,0,2.374-12.399-8.576-23.351c0,0-1.187,7.39-6.464,8.708l2.905,3.823l0.525,3.696l-0.395,1.846l-0.924,1.188l-0.792,1.449
			v1.453L96.21,56.581z"/>
		<path fill="#FFFFFF" d="M57.361,60.076v-1.914l0.528-1.385l0.793-1.45l0.921-0.661l0.663-0.791h0.789l0.658-1.319l0.928-1.056
			v-1.053l1.582-0.661h0.923l6.462-0.791l0.529-0.527l1.053-0.923l1.188-0.791l0.661-1.386h1.058l0.525-0.595h1.587h1.45v-0.79h1.12
			h1.517l0.923,0.524l5.802,0.133l0.531-0.657l0.925-0.794l1.316-0.792h1.252h0.727l0.791,0.925l1.056,0.661l0.527,1.385v1.911
			v1.716l-0.793,2.243l-0.791,1.978v2.111v0.658l-0.791,1.188l-1.584,0.988l-1.054,0.596c0,0-4.09-0.527-3.695,0
			c0.395,0.527-0.658,0-0.658,0l-0.397,1.318l-0.925,0.661h-2.637h-2.769l-0.396,1.581l-0.397,1.584l0.264,1.453v1.185l-0.526,0.529
			l-0.397,0.655h-0.79l-1.852,1.189h-1.582h-3.692h-4.089l-2.113-0.791l-1.185-0.66l-1.846-0.923l-1.582-1.826l-1.454-0.547
			l-1.056-1.451V60.076z"/>
		<path fill="#FFFFFF" d="M75.039,43.322h1.583l1.058-0.925l1.32,0.463h2.636h1.979l0.923,0.462h1.713l1.98-0.462l1.849-1.255
			l1.848-0.921l1.978-1.188l1.449-1.054h1.454v-1.321l0.922-0.659v-1.583h0.528v-1.451h0.922v-1.451v-0.923v-1.188
			c0,0-9.365-8.048-17.148-7.255l-0.265,1.978c0,0,0.659,1.586,1.188,1.586c0.527,0,0.922,1.976,0.922,1.976l-0.659,0.531
			l-1.187,0.921l-1.254,2.374h-0.724l-0.792,0.963h-0.659l-1.057,1.016l-0.791,0.397l-0.134,1.186l-0.661,1.583l0.661,1.585v1.185
			l-0.92,0.925l-0.663,1.058V43.322z"/>
		<path fill="#FFFFFF" d="M55.645,61.923v-1.847v-1.914h0.794v-2.506l0.923-1.252l1.846-0.793l0.663-1.056l0.921-0.792l0.792-1.053
			v-1.189h1.057V48.73h0.92l1.188-0.66h1.715h1.714l2.507-0.658l1.849-0.923l0.656-1.121v-2.046v-0.925l0.663-1.449l1.186-1.452
			v-2.244v-2.769l1.583-1.544l0.924-0.963l1.319-0.792l0.794-1.448l1.12-1.055l0.857-1.058v-1.319l-0.857-0.924l-0.724-0.923
			l0.129-0.924l-0.658-0.978c0,0-36.806-1.793-36.94,30.923C42.585,53.479,43.774,64.43,55.645,61.923z"/>
	</g>
	<path fill="#32123C" d="M101.139,75.354"/>
</g>
</svg>
